<svg width="646" height="31" viewBox="0 0 646 31" fill="none" xmlns="http://www.w3.org/2000/svg">
<path d="M2.82375 12H10.9518C11.6131 12 12.2424 11.904 12.8398 11.712C13.4371 11.4987 13.9598 11.2 14.4078 10.816C14.8558 10.432 15.2078 9.97333 15.4638 9.44C15.7411 8.88533 15.8798 8.256 15.8798 7.552C15.8798 6.144 15.4744 5.03467 14.6638 4.224C13.8531 3.41333 12.6158 3.008 10.9518 3.008H2.82375V12ZM0.64775 1.152H11.1118C12.0504 1.152 12.9358 1.26933 13.7678 1.504C14.6211 1.73867 15.3571 2.10133 15.9757 2.592C16.6158 3.06133 17.1171 3.68 17.4798 4.448C17.8638 5.19467 18.0558 6.08 18.0558 7.104C18.0558 8.55467 17.6824 9.81333 16.9358 10.88C16.1891 11.9467 15.0798 12.6293 13.6078 12.928V12.992C14.3544 13.0987 14.9731 13.3013 15.4638 13.6C15.9544 13.8773 16.3491 14.24 16.6478 14.688C16.9678 15.136 17.1918 15.6587 17.3198 16.256C17.4691 16.832 17.5651 17.4613 17.6078 18.144C17.6291 18.528 17.6504 18.9973 17.6718 19.552C17.6931 20.1067 17.7358 20.672 17.7998 21.248C17.8638 21.8027 17.9598 22.336 18.0878 22.848C18.2371 23.3387 18.4291 23.7227 18.6638 24H16.2638C16.1358 23.7867 16.0291 23.5307 15.9438 23.232C15.8798 22.912 15.8264 22.592 15.7838 22.272C15.7624 21.9307 15.7411 21.6 15.7198 21.28C15.6984 20.96 15.6771 20.6827 15.6558 20.448C15.6131 19.6373 15.5384 18.8373 15.4318 18.048C15.3464 17.2373 15.1438 16.5227 14.8238 15.904C14.5251 15.264 14.0771 14.752 13.4798 14.368C12.9038 13.984 12.1038 13.8133 11.0798 13.856H2.82375V24H0.64775V1.152ZM33.4795 14.592C33.4582 13.824 33.3195 13.088 33.0635 12.384C32.8288 11.68 32.4875 11.0613 32.0395 10.528C31.5915 9.97333 31.0475 9.536 30.4075 9.216C29.7675 8.87467 29.0422 8.704 28.2315 8.704C27.3995 8.704 26.6635 8.87467 26.0235 9.216C25.3835 9.536 24.8395 9.97333 24.3915 10.528C23.9435 11.0613 23.5808 11.6907 23.3035 12.416C23.0475 13.12 22.8768 13.8453 22.7915 14.592H33.4795ZM22.7915 16.288C22.7915 17.0133 22.8875 17.7707 23.0795 18.56C23.2928 19.328 23.6235 20.0213 24.0715 20.64C24.5195 21.2587 25.0848 21.7707 25.7675 22.176C26.4502 22.5813 27.2715 22.784 28.2315 22.784C29.7035 22.784 30.8555 22.4 31.6875 21.632C32.5195 20.864 33.0955 19.84 33.4155 18.56H35.4315C35.0048 20.4373 34.2155 21.888 33.0635 22.912C31.9328 23.936 30.3222 24.448 28.2315 24.448C26.9302 24.448 25.7995 24.224 24.8395 23.776C23.9008 23.3067 23.1328 22.6773 22.5355 21.888C21.9382 21.0773 21.4902 20.1493 21.1915 19.104C20.9142 18.0373 20.7755 16.9173 20.7755 15.744C20.7755 14.656 20.9142 13.5893 21.1915 12.544C21.4902 11.4987 21.9382 10.5707 22.5355 9.76C23.1328 8.928 23.9008 8.26667 24.8395 7.776C25.7995 7.264 26.9302 7.008 28.2315 7.008C29.5542 7.008 30.6848 7.27467 31.6235 7.808C32.5622 8.34133 33.3195 9.04533 33.8955 9.92C34.4928 10.7733 34.9195 11.7653 35.1755 12.896C35.4315 14.0053 35.5382 15.136 35.4955 16.288H22.7915ZM48.0893 12.32C48.0679 11.7013 47.9399 11.168 47.7053 10.72C47.4706 10.2507 47.1506 9.86667 46.7453 9.568C46.3613 9.26933 45.9133 9.056 45.4013 8.928C44.8893 8.77867 44.3453 8.704 43.7693 8.704C43.3213 8.704 42.8626 8.75733 42.3933 8.864C41.9453 8.94933 41.5293 9.10933 41.1453 9.344C40.7613 9.55733 40.4519 9.84533 40.2173 10.208C39.9826 10.5707 39.8653 11.0187 39.8653 11.552C39.8653 12 39.9719 12.384 40.1853 12.704C40.4199 13.0027 40.7079 13.2587 41.0493 13.472C41.3906 13.6853 41.7639 13.8667 42.1693 14.016C42.5746 14.144 42.9479 14.2507 43.2893 14.336L45.9773 14.944C46.5533 15.0293 47.1186 15.1893 47.6733 15.424C48.2493 15.6373 48.7506 15.9253 49.1773 16.288C49.6253 16.6507 49.9879 17.0987 50.2653 17.632C50.5426 18.1653 50.6813 18.7947 50.6813 19.52C50.6813 20.416 50.4786 21.184 50.0733 21.824C49.6679 22.4427 49.1453 22.9547 48.5053 23.36C47.8866 23.744 47.1826 24.0213 46.3933 24.192C45.6039 24.3627 44.8253 24.448 44.0573 24.448C42.1159 24.448 40.5373 23.9893 39.3213 23.072C38.1266 22.1547 37.4439 20.6827 37.2733 18.656H39.2893C39.3746 20.0213 39.8653 21.056 40.7613 21.76C41.6786 22.4427 42.8093 22.784 44.1533 22.784C44.6439 22.784 45.1453 22.7307 45.6573 22.624C46.1906 22.5173 46.6813 22.336 47.1293 22.08C47.5773 21.824 47.9399 21.504 48.2173 21.12C48.5159 20.7147 48.6653 20.224 48.6653 19.648C48.6653 19.1573 48.5586 18.752 48.3453 18.432C48.1533 18.0907 47.8866 17.8133 47.5453 17.6C47.2039 17.3653 46.8093 17.1733 46.3613 17.024C45.9346 16.8747 45.4973 16.7467 45.0493 16.64L42.4573 16.064C41.7959 15.8933 41.1879 15.7013 40.6333 15.488C40.0786 15.2533 39.5879 14.976 39.1613 14.656C38.7559 14.3147 38.4359 13.9093 38.2013 13.44C37.9666 12.9493 37.8493 12.352 37.8493 11.648C37.8493 10.816 38.0306 10.1013 38.3932 9.504C38.7773 8.90667 39.2679 8.42667 39.8653 8.064C40.4626 7.70133 41.1239 7.43467 41.8493 7.264C42.5959 7.09333 43.3319 7.008 44.0573 7.008C44.8893 7.008 45.6573 7.11467 46.3613 7.328C47.0866 7.54133 47.7159 7.872 48.2493 8.32C48.8039 8.768 49.2413 9.32267 49.5613 9.984C49.8813 10.6453 50.0626 11.424 50.1053 12.32H48.0893ZM63.4955 12.32C63.4742 11.7013 63.3462 11.168 63.1115 10.72C62.8768 10.2507 62.5568 9.86667 62.1515 9.568C61.7675 9.26933 61.3195 9.056 60.8075 8.928C60.2955 8.77867 59.7515 8.704 59.1755 8.704C58.7275 8.704 58.2688 8.75733 57.7995 8.864C57.3515 8.94933 56.9355 9.10933 56.5515 9.344C56.1675 9.55733 55.8582 9.84533 55.6235 10.208C55.3888 10.5707 55.2715 11.0187 55.2715 11.552C55.2715 12 55.3782 12.384 55.5915 12.704C55.8262 13.0027 56.1142 13.2587 56.4555 13.472C56.7968 13.6853 57.1702 13.8667 57.5755 14.016C57.9808 14.144 58.3542 14.2507 58.6955 14.336L61.3835 14.944C61.9595 15.0293 62.5248 15.1893 63.0795 15.424C63.6555 15.6373 64.1568 15.9253 64.5835 16.288C65.0315 16.6507 65.3942 17.0987 65.6715 17.632C65.9488 18.1653 66.0875 18.7947 66.0875 19.52C66.0875 20.416 65.8848 21.184 65.4795 21.824C65.0742 22.4427 64.5515 22.9547 63.9115 23.36C63.2928 23.744 62.5888 24.0213 61.7995 24.192C61.0102 24.3627 60.2315 24.448 59.4635 24.448C57.5222 24.448 55.9435 23.9893 54.7275 23.072C53.5328 22.1547 52.8502 20.6827 52.6795 18.656H54.6955C54.7808 20.0213 55.2715 21.056 56.1675 21.76C57.0848 22.4427 58.2155 22.784 59.5595 22.784C60.0502 22.784 60.5515 22.7307 61.0635 22.624C61.5968 22.5173 62.0875 22.336 62.5355 22.08C62.9835 21.824 63.3462 21.504 63.6235 21.12C63.9222 20.7147 64.0715 20.224 64.0715 19.648C64.0715 19.1573 63.9648 18.752 63.7515 18.432C63.5595 18.0907 63.2928 17.8133 62.9515 17.6C62.6102 17.3653 62.2155 17.1733 61.7675 17.024C61.3408 16.8747 60.9035 16.7467 60.4555 16.64L57.8635 16.064C57.2022 15.8933 56.5942 15.7013 56.0395 15.488C55.4848 15.2533 54.9942 14.976 54.5675 14.656C54.1622 14.3147 53.8422 13.9093 53.6075 13.44C53.3728 12.9493 53.2555 12.352 53.2555 11.648C53.2555 10.816 53.4368 10.1013 53.7995 9.504C54.1835 8.90667 54.6742 8.42667 55.2715 8.064C55.8688 7.70133 56.5302 7.43467 57.2555 7.264C58.0022 7.09333 58.7382 7.008 59.4635 7.008C60.2955 7.008 61.0635 7.11467 61.7675 7.328C62.4928 7.54133 63.1222 7.872 63.6555 8.32C64.2102 8.768 64.6475 9.32267 64.9675 9.984C65.2875 10.6453 65.4688 11.424 65.5115 12.32H63.4955ZM75.9898 8.704C75.0298 8.704 74.1871 8.90667 73.4618 9.312C72.7364 9.71733 72.1284 10.2507 71.6378 10.912C71.1684 11.5733 70.8058 12.3307 70.5498 13.184C70.3151 14.016 70.1978 14.8693 70.1978 15.744C70.1978 16.6187 70.3151 17.4827 70.5498 18.336C70.8058 19.168 71.1684 19.9147 71.6378 20.576C72.1284 21.2373 72.7364 21.7707 73.4618 22.176C74.1871 22.5813 75.0298 22.784 75.9898 22.784C76.9498 22.784 77.7924 22.5813 78.5178 22.176C79.2431 21.7707 79.8404 21.2373 80.3098 20.576C80.8004 19.9147 81.1631 19.168 81.3978 18.336C81.6538 17.4827 81.7818 16.6187 81.7818 15.744C81.7818 14.8693 81.6538 14.016 81.3978 13.184C81.1631 12.3307 80.8004 11.5733 80.3098 10.912C79.8404 10.2507 79.2431 9.71733 78.5178 9.312C77.7924 8.90667 76.9498 8.704 75.9898 8.704ZM75.9898 7.008C77.2484 7.008 78.3578 7.24267 79.3178 7.712C80.2991 8.18133 81.1204 8.81067 81.7818 9.6C82.4431 10.3893 82.9444 11.3173 83.2858 12.384C83.6271 13.4293 83.7978 14.5493 83.7978 15.744C83.7978 16.9387 83.6271 18.0693 83.2858 19.136C82.9444 20.1813 82.4431 21.0987 81.7818 21.888C81.1204 22.6773 80.2991 23.3067 79.3178 23.776C78.3578 24.224 77.2484 24.448 75.9898 24.448C74.7311 24.448 73.6111 24.224 72.6298 23.776C71.6698 23.3067 70.8591 22.6773 70.1978 21.888C69.5364 21.0987 69.0351 20.1813 68.6938 19.136C68.3524 18.0693 68.1818 16.9387 68.1818 15.744C68.1818 14.5493 68.3524 13.4293 68.6938 12.384C69.0351 11.3173 69.5364 10.3893 70.1978 9.6C70.8591 8.81067 71.6698 8.18133 72.6298 7.712C73.6111 7.24267 74.7311 7.008 75.9898 7.008ZM100.171 24H98.315V21.024H98.251C97.7177 22.1333 96.939 22.9867 95.915 23.584C94.9123 24.16 93.7923 24.448 92.555 24.448C91.5097 24.448 90.6137 24.2987 89.867 24C89.1417 23.7227 88.5443 23.3173 88.075 22.784C87.627 22.2507 87.2963 21.6 87.083 20.832C86.8697 20.064 86.763 19.1893 86.763 18.208V7.488H88.779V18.24C88.8217 19.7333 89.163 20.864 89.803 21.632C90.4643 22.4 91.595 22.784 93.195 22.784C94.0697 22.784 94.8163 22.6027 95.435 22.24C96.0537 21.856 96.5657 21.3547 96.971 20.736C97.3763 20.1173 97.675 19.4133 97.867 18.624C98.059 17.8133 98.155 16.992 98.155 16.16V7.488H100.171V24ZM103.983 7.488H105.839V11.36H105.903C106.415 10.016 107.204 8.98133 108.271 8.256C109.359 7.53067 110.649 7.2 112.143 7.264V9.28C111.225 9.23733 110.393 9.36533 109.647 9.664C108.9 9.94133 108.249 10.3467 107.695 10.88C107.161 11.4133 106.745 12.0533 106.447 12.8C106.148 13.5253 105.999 14.3253 105.999 15.2V24H103.983V7.488ZM125.162 12.672C124.884 11.4347 124.372 10.464 123.626 9.76C122.879 9.056 121.834 8.704 120.49 8.704C119.53 8.704 118.687 8.90667 117.962 9.312C117.236 9.71733 116.628 10.2507 116.138 10.912C115.668 11.5733 115.306 12.3307 115.05 13.184C114.815 14.016 114.698 14.8693 114.698 15.744C114.698 16.6187 114.815 17.4827 115.05 18.336C115.306 19.168 115.668 19.9147 116.138 20.576C116.628 21.2373 117.236 21.7707 117.962 22.176C118.687 22.5813 119.53 22.784 120.49 22.784C121.108 22.784 121.695 22.6667 122.25 22.432C122.804 22.1973 123.295 21.8773 123.722 21.472C124.148 21.0453 124.5 20.544 124.778 19.968C125.055 19.392 125.226 18.7627 125.29 18.08H127.306C127.028 20.0853 126.292 21.6533 125.098 22.784C123.903 23.8933 122.367 24.448 120.49 24.448C119.231 24.448 118.111 24.224 117.13 23.776C116.17 23.3067 115.359 22.6773 114.698 21.888C114.036 21.0987 113.535 20.1813 113.194 19.136C112.852 18.0693 112.682 16.9387 112.682 15.744C112.682 14.5493 112.852 13.4293 113.194 12.384C113.535 11.3173 114.036 10.3893 114.698 9.6C115.359 8.81067 116.17 8.18133 117.13 7.712C118.111 7.24267 119.231 7.008 120.49 7.008C122.26 7.008 123.754 7.47733 124.97 8.416C126.207 9.35467 126.943 10.7733 127.178 12.672H125.162ZM141.98 14.592C141.958 13.824 141.82 13.088 141.564 12.384C141.329 11.68 140.988 11.0613 140.54 10.528C140.092 9.97333 139.548 9.536 138.908 9.216C138.268 8.87467 137.542 8.704 136.732 8.704C135.9 8.704 135.164 8.87467 134.524 9.216C133.884 9.536 133.34 9.97333 132.891 10.528C132.444 11.0613 132.081 11.6907 131.804 12.416C131.548 13.12 131.377 13.8453 131.292 14.592H141.98ZM131.292 16.288C131.292 17.0133 131.388 17.7707 131.58 18.56C131.793 19.328 132.124 20.0213 132.572 20.64C133.02 21.2587 133.585 21.7707 134.268 22.176C134.95 22.5813 135.772 22.784 136.732 22.784C138.204 22.784 139.356 22.4 140.188 21.632C141.02 20.864 141.596 19.84 141.916 18.56H143.932C143.505 20.4373 142.716 21.888 141.564 22.912C140.433 23.936 138.822 24.448 136.732 24.448C135.43 24.448 134.3 24.224 133.34 23.776C132.401 23.3067 131.633 22.6773 131.036 21.888C130.438 21.0773 129.99 20.1493 129.692 19.104C129.414 18.0373 129.276 16.9173 129.276 15.744C129.276 14.656 129.414 13.5893 129.692 12.544C129.99 11.4987 130.438 10.5707 131.036 9.76C131.633 8.928 132.401 8.26667 133.34 7.776C134.3 7.264 135.43 7.008 136.732 7.008C138.054 7.008 139.185 7.27467 140.124 7.808C141.062 8.34133 141.82 9.04533 142.396 9.92C142.993 10.7733 143.42 11.7653 143.676 12.896C143.932 14.0053 144.038 15.136 143.996 16.288H131.292ZM147.693 22.304H159.053V24H145.261V22.368L156.045 9.184H145.997V7.488H158.605V8.928L147.693 22.304ZM161.514 16.128V14.272H169.514V16.128H161.514ZM171.502 7.488H173.742L178.926 21.984H178.99L184.11 7.488H186.19L180.014 24H177.87L171.502 7.488ZM195.146 8.704C194.186 8.704 193.343 8.90667 192.618 9.312C191.893 9.71733 191.285 10.2507 190.794 10.912C190.325 11.5733 189.962 12.3307 189.706 13.184C189.471 14.016 189.354 14.8693 189.354 15.744C189.354 16.6187 189.471 17.4827 189.706 18.336C189.962 19.168 190.325 19.9147 190.794 20.576C191.285 21.2373 191.893 21.7707 192.618 22.176C193.343 22.5813 194.186 22.784 195.146 22.784C196.106 22.784 196.949 22.5813 197.674 22.176C198.399 21.7707 198.997 21.2373 199.466 20.576C199.957 19.9147 200.319 19.168 200.554 18.336C200.81 17.4827 200.938 16.6187 200.938 15.744C200.938 14.8693 200.81 14.016 200.554 13.184C200.319 12.3307 199.957 11.5733 199.466 10.912C198.997 10.2507 198.399 9.71733 197.674 9.312C196.949 8.90667 196.106 8.704 195.146 8.704ZM195.146 7.008C196.405 7.008 197.514 7.24267 198.474 7.712C199.455 8.18133 200.277 8.81067 200.938 9.6C201.599 10.3893 202.101 11.3173 202.442 12.384C202.783 13.4293 202.954 14.5493 202.954 15.744C202.954 16.9387 202.783 18.0693 202.442 19.136C202.101 20.1813 201.599 21.0987 200.938 21.888C200.277 22.6773 199.455 23.3067 198.474 23.776C197.514 24.224 196.405 24.448 195.146 24.448C193.887 24.448 192.767 24.224 191.786 23.776C190.826 23.3067 190.015 22.6773 189.354 21.888C188.693 21.0987 188.191 20.1813 187.85 19.136C187.509 18.0693 187.338 16.9387 187.338 15.744C187.338 14.5493 187.509 13.4293 187.85 12.384C188.191 11.3173 188.693 10.3893 189.354 9.6C190.015 8.81067 190.826 8.18133 191.786 7.712C192.767 7.24267 193.887 7.008 195.146 7.008ZM219.327 24H217.471V21.024H217.407C216.874 22.1333 216.095 22.9867 215.071 23.584C214.069 24.16 212.949 24.448 211.711 24.448C210.666 24.448 209.77 24.2987 209.023 24C208.298 23.7227 207.701 23.3173 207.231 22.784C206.783 22.2507 206.453 21.6 206.239 20.832C206.026 20.064 205.919 19.1893 205.919 18.208V7.488H207.935V18.24C207.978 19.7333 208.319 20.864 208.959 21.632C209.621 22.4 210.751 22.784 212.351 22.784C213.226 22.784 213.973 22.6027 214.591 22.24C215.21 21.856 215.722 21.3547 216.127 20.736C216.533 20.1173 216.831 19.4133 217.023 18.624C217.215 17.8133 217.311 16.992 217.311 16.16V7.488H219.327V24ZM233.027 12.32C233.005 11.7013 232.877 11.168 232.643 10.72C232.408 10.2507 232.088 9.86667 231.683 9.568C231.299 9.26933 230.851 9.056 230.339 8.928C229.827 8.77867 229.283 8.704 228.707 8.704C228.259 8.704 227.8 8.75733 227.331 8.864C226.883 8.94933 226.467 9.10933 226.083 9.344C225.699 9.55733 225.389 9.84533 225.155 10.208C224.92 10.5707 224.803 11.0187 224.803 11.552C224.803 12 224.909 12.384 225.123 12.704C225.357 13.0027 225.645 13.2587 225.987 13.472C226.328 13.6853 226.701 13.8667 227.107 14.016C227.512 14.144 227.885 14.2507 228.227 14.336L230.915 14.944C231.491 15.0293 232.056 15.1893 232.611 15.424C233.187 15.6373 233.688 15.9253 234.115 16.288C234.563 16.6507 234.925 17.0987 235.203 17.632C235.48 18.1653 235.619 18.7947 235.619 19.52C235.619 20.416 235.416 21.184 235.011 21.824C234.605 22.4427 234.083 22.9547 233.443 23.36C232.824 23.744 232.12 24.0213 231.331 24.192C230.541 24.3627 229.763 24.448 228.995 24.448C227.053 24.448 225.475 23.9893 224.259 23.072C223.064 22.1547 222.381 20.6827 222.211 18.656H224.227C224.312 20.0213 224.803 21.056 225.699 21.76C226.616 22.4427 227.747 22.784 229.091 22.784C229.581 22.784 230.083 22.7307 230.595 22.624C231.128 22.5173 231.619 22.336 232.067 22.08C232.515 21.824 232.877 21.504 233.155 21.12C233.453 20.7147 233.603 20.224 233.603 19.648C233.603 19.1573 233.496 18.752 233.283 18.432C233.091 18.0907 232.824 17.8133 232.483 17.6C232.141 17.3653 231.747 17.1733 231.299 17.024C230.872 16.8747 230.435 16.7467 229.987 16.64L227.395 16.064C226.733 15.8933 226.125 15.7013 225.571 15.488C225.016 15.2533 224.525 14.976 224.099 14.656C223.693 14.3147 223.373 13.9093 223.139 13.44C222.904 12.9493 222.787 12.352 222.787 11.648C222.787 10.816 222.968 10.1013 223.331 9.504C223.715 8.90667 224.205 8.42667 224.803 8.064C225.4 7.70133 226.061 7.43467 226.787 7.264C227.533 7.09333 228.269 7.008 228.995 7.008C229.827 7.008 230.595 7.11467 231.299 7.328C232.024 7.54133 232.653 7.872 233.187 8.32C233.741 8.768 234.179 9.32267 234.499 9.984C234.819 10.6453 235 11.424 235.043 12.32H233.027ZM247.259 12.544C247.323 11.584 247.526 10.752 247.867 10.048C248.209 9.344 248.667 8.768 249.243 8.32C249.841 7.872 250.534 7.54133 251.323 7.328C252.113 7.11467 252.987 7.008 253.947 7.008C254.673 7.008 255.398 7.08267 256.123 7.232C256.849 7.36 257.499 7.616 258.075 8C258.651 8.384 259.121 8.928 259.483 9.632C259.846 10.3147 260.027 11.2107 260.027 12.32V21.088C260.027 21.8987 260.422 22.304 261.211 22.304C261.446 22.304 261.659 22.2613 261.851 22.176V23.872C261.617 23.9147 261.403 23.9467 261.211 23.968C261.041 23.9893 260.817 24 260.539 24C260.027 24 259.611 23.936 259.291 23.808C258.993 23.6587 258.758 23.456 258.587 23.2C258.417 22.944 258.299 22.6453 258.235 22.304C258.193 21.9413 258.171 21.5467 258.171 21.12H258.107C257.745 21.6533 257.371 22.1333 256.987 22.56C256.625 22.9653 256.209 23.3067 255.739 23.584C255.291 23.8613 254.769 24.0747 254.171 24.224C253.595 24.3733 252.902 24.448 252.091 24.448C251.323 24.448 250.598 24.352 249.915 24.16C249.254 23.9893 248.667 23.712 248.155 23.328C247.665 22.9227 247.27 22.4213 246.971 21.824C246.694 21.2053 246.555 20.48 246.555 19.648C246.555 18.496 246.811 17.6 247.323 16.96C247.835 16.2987 248.507 15.7973 249.339 15.456C250.193 15.1147 251.142 14.88 252.187 14.752C253.254 14.6027 254.331 14.464 255.419 14.336C255.846 14.2933 256.219 14.24 256.539 14.176C256.859 14.112 257.126 14.0053 257.339 13.856C257.553 13.6853 257.713 13.4613 257.819 13.184C257.947 12.9067 258.011 12.544 258.011 12.096C258.011 11.4133 257.894 10.8587 257.659 10.432C257.446 9.984 257.137 9.632 256.731 9.376C256.347 9.12 255.889 8.94933 255.355 8.864C254.843 8.75733 254.289 8.704 253.691 8.704C252.411 8.704 251.366 9.01333 250.555 9.632C249.745 10.2293 249.318 11.2 249.275 12.544H247.259ZM258.011 14.976H257.947C257.819 15.2107 257.574 15.3813 257.211 15.488C256.849 15.5947 256.529 15.6693 256.251 15.712C255.398 15.8613 254.513 16 253.595 16.128C252.699 16.2347 251.878 16.4053 251.131 16.64C250.385 16.8747 249.766 17.216 249.275 17.664C248.806 18.0907 248.571 18.7093 248.571 19.52C248.571 20.032 248.667 20.4907 248.859 20.896C249.073 21.28 249.35 21.6213 249.691 21.92C250.033 22.1973 250.427 22.4107 250.875 22.56C251.323 22.7093 251.782 22.784 252.251 22.784C253.019 22.784 253.755 22.6667 254.459 22.432C255.163 22.1973 255.771 21.856 256.283 21.408C256.817 20.96 257.233 20.416 257.531 19.776C257.851 19.136 258.011 18.4107 258.011 17.6V14.976ZM262.189 7.488H264.429L269.613 21.984H269.677L274.797 7.488H276.877L270.701 24H268.557L262.189 7.488ZM290.73 14.592C290.708 13.824 290.57 13.088 290.314 12.384C290.079 11.68 289.738 11.0613 289.29 10.528C288.842 9.97333 288.298 9.536 287.658 9.216C287.018 8.87467 286.292 8.704 285.482 8.704C284.65 8.704 283.914 8.87467 283.274 9.216C282.634 9.536 282.09 9.97333 281.641 10.528C281.194 11.0613 280.831 11.6907 280.554 12.416C280.298 13.12 280.127 13.8453 280.042 14.592H290.73ZM280.042 16.288C280.042 17.0133 280.138 17.7707 280.33 18.56C280.543 19.328 280.874 20.0213 281.322 20.64C281.77 21.2587 282.335 21.7707 283.018 22.176C283.7 22.5813 284.522 22.784 285.482 22.784C286.954 22.784 288.106 22.4 288.938 21.632C289.77 20.864 290.346 19.84 290.666 18.56H292.682C292.255 20.4373 291.466 21.888 290.314 22.912C289.183 23.936 287.572 24.448 285.482 24.448C284.18 24.448 283.05 24.224 282.09 23.776C281.151 23.3067 280.383 22.6773 279.786 21.888C279.188 21.0773 278.74 20.1493 278.442 19.104C278.164 18.0373 278.026 16.9173 278.026 15.744C278.026 14.656 278.164 13.5893 278.442 12.544C278.74 11.4987 279.188 10.5707 279.786 9.76C280.383 8.928 281.151 8.26667 282.09 7.776C283.05 7.264 284.18 7.008 285.482 7.008C286.804 7.008 287.935 7.27467 288.874 7.808C289.812 8.34133 290.57 9.04533 291.146 9.92C291.743 10.7733 292.17 11.7653 292.426 12.896C292.682 14.0053 292.788 15.136 292.746 16.288H280.042ZM307.099 12.672C306.822 11.4347 306.31 10.464 305.563 9.76C304.817 9.056 303.771 8.704 302.427 8.704C301.467 8.704 300.625 8.90667 299.899 9.312C299.174 9.71733 298.566 10.2507 298.075 10.912C297.606 11.5733 297.243 12.3307 296.987 13.184C296.753 14.016 296.635 14.8693 296.635 15.744C296.635 16.6187 296.753 17.4827 296.987 18.336C297.243 19.168 297.606 19.9147 298.075 20.576C298.566 21.2373 299.174 21.7707 299.899 22.176C300.625 22.5813 301.467 22.784 302.427 22.784C303.046 22.784 303.633 22.6667 304.187 22.432C304.742 22.1973 305.233 21.8773 305.659 21.472C306.086 21.0453 306.438 20.544 306.715 19.968C306.993 19.392 307.163 18.7627 307.227 18.08H309.243C308.966 20.0853 308.23 21.6533 307.035 22.784C305.841 23.8933 304.305 24.448 302.427 24.448C301.169 24.448 300.049 24.224 299.067 23.776C298.107 23.3067 297.297 22.6773 296.635 21.888C295.974 21.0987 295.473 20.1813 295.131 19.136C294.79 18.0693 294.619 16.9387 294.619 15.744C294.619 14.5493 294.79 13.4293 295.131 12.384C295.473 11.3173 295.974 10.3893 296.635 9.6C297.297 8.81067 298.107 8.18133 299.067 7.712C300.049 7.24267 301.169 7.008 302.427 7.008C304.198 7.008 305.691 7.47733 306.907 8.416C308.145 9.35467 308.881 10.7733 309.115 12.672H307.099ZM320.983 1.152H322.999V24H320.983V1.152ZM326.666 12.544C326.73 11.584 326.932 10.752 327.274 10.048C327.615 9.344 328.074 8.768 328.65 8.32C329.247 7.872 329.94 7.54133 330.73 7.328C331.519 7.11467 332.394 7.008 333.354 7.008C334.079 7.008 334.804 7.08267 335.53 7.232C336.255 7.36 336.906 7.616 337.482 8C338.058 8.384 338.527 8.928 338.89 9.632C339.252 10.3147 339.434 11.2107 339.434 12.32V21.088C339.434 21.8987 339.828 22.304 340.618 22.304C340.852 22.304 341.066 22.2613 341.258 22.176V23.872C341.023 23.9147 340.81 23.9467 340.618 23.968C340.447 23.9893 340.223 24 339.946 24C339.434 24 339.018 23.936 338.698 23.808C338.399 23.6587 338.164 23.456 337.994 23.2C337.823 22.944 337.706 22.6453 337.642 22.304C337.599 21.9413 337.578 21.5467 337.578 21.12H337.514C337.151 21.6533 336.778 22.1333 336.394 22.56C336.031 22.9653 335.615 23.3067 335.146 23.584C334.698 23.8613 334.175 24.0747 333.578 24.224C333.002 24.3733 332.308 24.448 331.498 24.448C330.73 24.448 330.004 24.352 329.322 24.16C328.66 23.9893 328.074 23.712 327.562 23.328C327.071 22.9227 326.676 22.4213 326.378 21.824C326.1 21.2053 325.962 20.48 325.962 19.648C325.962 18.496 326.218 17.6 326.73 16.96C327.242 16.2987 327.914 15.7973 328.746 15.456C329.599 15.1147 330.548 14.88 331.594 14.752C332.66 14.6027 333.738 14.464 334.826 14.336C335.252 14.2933 335.626 14.24 335.946 14.176C336.266 14.112 336.532 14.0053 336.746 13.856C336.959 13.6853 337.119 13.4613 337.226 13.184C337.354 12.9067 337.418 12.544 337.418 12.096C337.418 11.4133 337.3 10.8587 337.066 10.432C336.852 9.984 336.543 9.632 336.138 9.376C335.754 9.12 335.295 8.94933 334.762 8.864C334.25 8.75733 333.695 8.704 333.098 8.704C331.818 8.704 330.772 9.01333 329.962 9.632C329.151 10.2293 328.724 11.2 328.682 12.544H326.666ZM337.418 14.976H337.354C337.226 15.2107 336.98 15.3813 336.618 15.488C336.255 15.5947 335.935 15.6693 335.658 15.712C334.804 15.8613 333.919 16 333.002 16.128C332.106 16.2347 331.284 16.4053 330.538 16.64C329.791 16.8747 329.172 17.216 328.682 17.664C328.212 18.0907 327.978 18.7093 327.978 19.52C327.978 20.032 328.074 20.4907 328.266 20.896C328.479 21.28 328.756 21.6213 329.098 21.92C329.439 22.1973 329.834 22.4107 330.282 22.56C330.73 22.7093 331.188 22.784 331.658 22.784C332.426 22.784 333.162 22.6667 333.866 22.432C334.57 22.1973 335.178 21.856 335.69 21.408C336.223 20.96 336.639 20.416 336.938 19.776C337.258 19.136 337.418 18.4107 337.418 17.6V14.976ZM364.006 12.672C363.728 11.4347 363.216 10.464 362.47 9.76C361.723 9.056 360.678 8.704 359.334 8.704C358.374 8.704 357.531 8.90667 356.806 9.312C356.08 9.71733 355.472 10.2507 354.982 10.912C354.512 11.5733 354.15 12.3307 353.894 13.184C353.659 14.016 353.542 14.8693 353.542 15.744C353.542 16.6187 353.659 17.4827 353.894 18.336C354.15 19.168 354.512 19.9147 354.982 20.576C355.472 21.2373 356.08 21.7707 356.806 22.176C357.531 22.5813 358.374 22.784 359.334 22.784C359.952 22.784 360.539 22.6667 361.094 22.432C361.648 22.1973 362.139 21.8773 362.566 21.472C362.992 21.0453 363.344 20.544 363.622 19.968C363.899 19.392 364.07 18.7627 364.134 18.08H366.15C365.872 20.0853 365.136 21.6533 363.942 22.784C362.747 23.8933 361.211 24.448 359.334 24.448C358.075 24.448 356.955 24.224 355.974 23.776C355.014 23.3067 354.203 22.6773 353.542 21.888C352.88 21.0987 352.379 20.1813 352.038 19.136C351.696 18.0693 351.526 16.9387 351.526 15.744C351.526 14.5493 351.696 13.4293 352.038 12.384C352.379 11.3173 352.88 10.3893 353.542 9.6C354.203 8.81067 355.014 8.18133 355.974 7.712C356.955 7.24267 358.075 7.008 359.334 7.008C361.104 7.008 362.598 7.47733 363.814 8.416C365.051 9.35467 365.787 10.7733 366.022 12.672H364.006ZM375.927 8.704C374.967 8.704 374.125 8.90667 373.399 9.312C372.674 9.71733 372.066 10.2507 371.575 10.912C371.106 11.5733 370.743 12.3307 370.487 13.184C370.253 14.016 370.135 14.8693 370.135 15.744C370.135 16.6187 370.253 17.4827 370.487 18.336C370.743 19.168 371.106 19.9147 371.575 20.576C372.066 21.2373 372.674 21.7707 373.399 22.176C374.125 22.5813 374.967 22.784 375.927 22.784C376.887 22.784 377.73 22.5813 378.455 22.176C379.181 21.7707 379.778 21.2373 380.247 20.576C380.738 19.9147 381.101 19.168 381.335 18.336C381.591 17.4827 381.719 16.6187 381.719 15.744C381.719 14.8693 381.591 14.016 381.335 13.184C381.101 12.3307 380.738 11.5733 380.247 10.912C379.778 10.2507 379.181 9.71733 378.455 9.312C377.73 8.90667 376.887 8.704 375.927 8.704ZM375.927 7.008C377.186 7.008 378.295 7.24267 379.255 7.712C380.237 8.18133 381.058 8.81067 381.719 9.6C382.381 10.3893 382.882 11.3173 383.223 12.384C383.565 13.4293 383.735 14.5493 383.735 15.744C383.735 16.9387 383.565 18.0693 383.223 19.136C382.882 20.1813 382.381 21.0987 381.719 21.888C381.058 22.6773 380.237 23.3067 379.255 23.776C378.295 24.224 377.186 24.448 375.927 24.448C374.669 24.448 373.549 24.224 372.567 23.776C371.607 23.3067 370.797 22.6773 370.135 21.888C369.474 21.0987 368.973 20.1813 368.631 19.136C368.29 18.0693 368.119 16.9387 368.119 15.744C368.119 14.5493 368.29 13.4293 368.631 12.384C368.973 11.3173 369.474 10.3893 370.135 9.6C370.797 8.81067 371.607 8.18133 372.567 7.712C373.549 7.24267 374.669 7.008 375.927 7.008ZM386.701 1.152H388.717V10.336H388.781C389.165 9.33333 389.847 8.53333 390.829 7.936C391.81 7.31733 392.887 7.008 394.061 7.008C395.213 7.008 396.173 7.15733 396.941 7.456C397.73 7.75467 398.359 8.18133 398.829 8.736C399.298 9.26933 399.629 9.93067 399.821 10.72C400.013 11.5093 400.109 12.3947 400.109 13.376V24H398.093V13.696C398.093 12.992 398.029 12.3413 397.901 11.744C397.773 11.1253 397.549 10.592 397.229 10.144C396.909 9.696 396.471 9.344 395.917 9.088C395.383 8.832 394.711 8.704 393.901 8.704C393.09 8.704 392.365 8.85333 391.725 9.152C391.106 9.42933 390.573 9.824 390.125 10.336C389.698 10.8267 389.357 11.424 389.101 12.128C388.866 12.8107 388.738 13.5573 388.717 14.368V24H386.701V1.152ZM410.032 5.184H408.4L411.76 0.671999H414.256L410.032 5.184ZM415.792 14.592C415.771 13.824 415.632 13.088 415.376 12.384C415.141 11.68 414.8 11.0613 414.352 10.528C413.904 9.97333 413.36 9.536 412.72 9.216C412.08 8.87467 411.355 8.704 410.544 8.704C409.712 8.704 408.976 8.87467 408.336 9.216C407.696 9.536 407.152 9.97333 406.704 10.528C406.256 11.0613 405.893 11.6907 405.616 12.416C405.36 13.12 405.189 13.8453 405.104 14.592H415.792ZM405.104 16.288C405.104 17.0133 405.2 17.7707 405.392 18.56C405.605 19.328 405.936 20.0213 406.384 20.64C406.832 21.2587 407.397 21.7707 408.08 22.176C408.763 22.5813 409.584 22.784 410.544 22.784C412.016 22.784 413.168 22.4 414 21.632C414.832 20.864 415.408 19.84 415.728 18.56H417.744C417.317 20.4373 416.528 21.888 415.376 22.912C414.245 23.936 412.635 24.448 410.544 24.448C409.243 24.448 408.112 24.224 407.152 23.776C406.213 23.3067 405.445 22.6773 404.848 21.888C404.251 21.0773 403.803 20.1493 403.504 19.104C403.227 18.0373 403.088 16.9173 403.088 15.744C403.088 14.656 403.227 13.5893 403.504 12.544C403.803 11.4987 404.251 10.5707 404.848 9.76C405.445 8.928 406.213 8.26667 407.152 7.776C408.112 7.264 409.243 7.008 410.544 7.008C411.867 7.008 412.997 7.27467 413.936 7.808C414.875 8.34133 415.632 9.04533 416.208 9.92C416.805 10.7733 417.232 11.7653 417.488 12.896C417.744 14.0053 417.851 15.136 417.808 16.288H405.104ZM420.514 7.488H422.37V11.36H422.434C422.946 10.016 423.735 8.98133 424.802 8.256C425.89 7.53067 427.18 7.2 428.674 7.264V9.28C427.756 9.23733 426.924 9.36533 426.178 9.664C425.431 9.94133 424.78 10.3467 424.226 10.88C423.692 11.4133 423.276 12.0533 422.978 12.8C422.679 13.5253 422.53 14.3253 422.53 15.2V24H420.514V7.488ZM441.917 14.592C441.896 13.824 441.757 13.088 441.501 12.384C441.266 11.68 440.925 11.0613 440.477 10.528C440.029 9.97333 439.485 9.536 438.845 9.216C438.205 8.87467 437.48 8.704 436.669 8.704C435.837 8.704 435.101 8.87467 434.461 9.216C433.821 9.536 433.277 9.97333 432.829 10.528C432.381 11.0613 432.018 11.6907 431.741 12.416C431.485 13.12 431.314 13.8453 431.229 14.592H441.917ZM431.229 16.288C431.229 17.0133 431.325 17.7707 431.517 18.56C431.73 19.328 432.061 20.0213 432.509 20.64C432.957 21.2587 433.522 21.7707 434.205 22.176C434.888 22.5813 435.709 22.784 436.669 22.784C438.141 22.784 439.293 22.4 440.125 21.632C440.957 20.864 441.533 19.84 441.853 18.56H443.869C443.442 20.4373 442.653 21.888 441.501 22.912C440.37 23.936 438.76 24.448 436.669 24.448C435.368 24.448 434.237 24.224 433.277 23.776C432.338 23.3067 431.57 22.6773 430.973 21.888C430.376 21.0773 429.928 20.1493 429.629 19.104C429.352 18.0373 429.213 16.9173 429.213 15.744C429.213 14.656 429.352 13.5893 429.629 12.544C429.928 11.4987 430.376 10.5707 430.973 9.76C431.57 8.928 432.338 8.26667 433.277 7.776C434.237 7.264 435.368 7.008 436.669 7.008C437.992 7.008 439.122 7.27467 440.061 7.808C441 8.34133 441.757 9.04533 442.333 9.92C442.93 10.7733 443.357 11.7653 443.613 12.896C443.869 14.0053 443.976 15.136 443.933 16.288H431.229ZM446.607 7.488H448.623V10.336H448.687C449.071 9.33333 449.753 8.53333 450.735 7.936C451.716 7.31733 452.793 7.008 453.967 7.008C455.119 7.008 456.079 7.15733 456.847 7.456C457.636 7.75467 458.265 8.18133 458.735 8.736C459.204 9.26933 459.535 9.93067 459.727 10.72C459.919 11.5093 460.015 12.3947 460.015 13.376V24H457.999V13.696C457.999 12.992 457.935 12.3413 457.807 11.744C457.679 11.1253 457.455 10.592 457.135 10.144C456.815 9.696 456.377 9.344 455.823 9.088C455.289 8.832 454.617 8.704 453.807 8.704C452.996 8.704 452.271 8.85333 451.631 9.152C451.012 9.42933 450.479 9.824 450.031 10.336C449.604 10.8267 449.263 11.424 449.007 12.128C448.772 12.8107 448.644 13.5573 448.623 14.368V24H446.607V7.488ZM475.474 12.672C475.197 11.4347 474.685 10.464 473.938 9.76C473.192 9.056 472.146 8.704 470.802 8.704C469.842 8.704 469 8.90667 468.274 9.312C467.549 9.71733 466.941 10.2507 466.45 10.912C465.981 11.5733 465.618 12.3307 465.362 13.184C465.128 14.016 465.01 14.8693 465.01 15.744C465.01 16.6187 465.128 17.4827 465.362 18.336C465.618 19.168 465.981 19.9147 466.45 20.576C466.941 21.2373 467.549 21.7707 468.274 22.176C469 22.5813 469.842 22.784 470.802 22.784C471.421 22.784 472.008 22.6667 472.562 22.432C473.117 22.1973 473.608 21.8773 474.034 21.472C474.461 21.0453 474.813 20.544 475.09 19.968C475.368 19.392 475.538 18.7627 475.602 18.08H477.618C477.341 20.0853 476.605 21.6533 475.41 22.784C474.216 23.8933 472.68 24.448 470.802 24.448C469.544 24.448 468.424 24.224 467.442 23.776C466.482 23.3067 465.672 22.6773 465.01 21.888C464.349 21.0987 463.848 20.1813 463.506 19.136C463.165 18.0693 462.994 16.9387 462.994 15.744C462.994 14.5493 463.165 13.4293 463.506 12.384C463.848 11.3173 464.349 10.3893 465.01 9.6C465.672 8.81067 466.482 8.18133 467.442 7.712C468.424 7.24267 469.544 7.008 470.802 7.008C472.573 7.008 474.066 7.47733 475.282 8.416C476.52 9.35467 477.256 10.7733 477.49 12.672H475.474ZM492.292 14.592C492.271 13.824 492.132 13.088 491.876 12.384C491.641 11.68 491.3 11.0613 490.852 10.528C490.404 9.97333 489.86 9.536 489.22 9.216C488.58 8.87467 487.855 8.704 487.044 8.704C486.212 8.704 485.476 8.87467 484.836 9.216C484.196 9.536 483.652 9.97333 483.204 10.528C482.756 11.0613 482.393 11.6907 482.116 12.416C481.86 13.12 481.689 13.8453 481.604 14.592H492.292ZM481.604 16.288C481.604 17.0133 481.7 17.7707 481.892 18.56C482.105 19.328 482.436 20.0213 482.884 20.64C483.332 21.2587 483.897 21.7707 484.58 22.176C485.263 22.5813 486.084 22.784 487.044 22.784C488.516 22.784 489.668 22.4 490.5 21.632C491.332 20.864 491.908 19.84 492.228 18.56H494.244C493.817 20.4373 493.028 21.888 491.876 22.912C490.745 23.936 489.135 24.448 487.044 24.448C485.743 24.448 484.612 24.224 483.652 23.776C482.713 23.3067 481.945 22.6773 481.348 21.888C480.751 21.0773 480.303 20.1493 480.004 19.104C479.727 18.0373 479.588 16.9173 479.588 15.744C479.588 14.656 479.727 13.5893 480.004 12.544C480.303 11.4987 480.751 10.5707 481.348 9.76C481.945 8.928 482.713 8.26667 483.652 7.776C484.612 7.264 485.743 7.008 487.044 7.008C488.367 7.008 489.497 7.27467 490.436 7.808C491.375 8.34133 492.132 9.04533 492.708 9.92C493.305 10.7733 493.732 11.7653 493.988 12.896C494.244 14.0053 494.351 15.136 494.308 16.288H481.604ZM517.568 12.672C517.291 11.4347 516.779 10.464 516.032 9.76C515.285 9.056 514.24 8.704 512.896 8.704C511.936 8.704 511.093 8.90667 510.368 9.312C509.643 9.71733 509.035 10.2507 508.544 10.912C508.075 11.5733 507.712 12.3307 507.456 13.184C507.221 14.016 507.104 14.8693 507.104 15.744C507.104 16.6187 507.221 17.4827 507.456 18.336C507.712 19.168 508.075 19.9147 508.544 20.576C509.035 21.2373 509.643 21.7707 510.368 22.176C511.093 22.5813 511.936 22.784 512.896 22.784C513.515 22.784 514.101 22.6667 514.656 22.432C515.211 22.1973 515.701 21.8773 516.128 21.472C516.555 21.0453 516.907 20.544 517.184 19.968C517.461 19.392 517.632 18.7627 517.696 18.08H519.712C519.435 20.0853 518.699 21.6533 517.504 22.784C516.309 23.8933 514.773 24.448 512.896 24.448C511.637 24.448 510.517 24.224 509.536 23.776C508.576 23.3067 507.765 22.6773 507.104 21.888C506.443 21.0987 505.941 20.1813 505.6 19.136C505.259 18.0693 505.088 16.9387 505.088 15.744C505.088 14.5493 505.259 13.4293 505.6 12.384C505.941 11.3173 506.443 10.3893 507.104 9.6C507.765 8.81067 508.576 8.18133 509.536 7.712C510.517 7.24267 511.637 7.008 512.896 7.008C514.667 7.008 516.16 7.47733 517.376 8.416C518.613 9.35467 519.349 10.7733 519.584 12.672H517.568ZM522.322 12.544C522.386 11.584 522.588 10.752 522.93 10.048C523.271 9.344 523.73 8.768 524.306 8.32C524.903 7.872 525.596 7.54133 526.386 7.328C527.175 7.11467 528.05 7.008 529.01 7.008C529.735 7.008 530.46 7.08267 531.186 7.232C531.911 7.36 532.562 7.616 533.138 8C533.714 8.384 534.183 8.928 534.546 9.632C534.908 10.3147 535.09 11.2107 535.09 12.32V21.088C535.09 21.8987 535.484 22.304 536.274 22.304C536.508 22.304 536.722 22.2613 536.914 22.176V23.872C536.679 23.9147 536.466 23.9467 536.274 23.968C536.103 23.9893 535.879 24 535.602 24C535.09 24 534.674 23.936 534.354 23.808C534.055 23.6587 533.82 23.456 533.65 23.2C533.479 22.944 533.362 22.6453 533.298 22.304C533.255 21.9413 533.234 21.5467 533.234 21.12H533.17C532.807 21.6533 532.434 22.1333 532.05 22.56C531.687 22.9653 531.271 23.3067 530.802 23.584C530.354 23.8613 529.831 24.0747 529.234 24.224C528.658 24.3733 527.964 24.448 527.154 24.448C526.386 24.448 525.66 24.352 524.978 24.16C524.316 23.9893 523.73 23.712 523.218 23.328C522.727 22.9227 522.332 22.4213 522.034 21.824C521.756 21.2053 521.618 20.48 521.618 19.648C521.618 18.496 521.874 17.6 522.386 16.96C522.898 16.2987 523.57 15.7973 524.402 15.456C525.255 15.1147 526.204 14.88 527.25 14.752C528.316 14.6027 529.394 14.464 530.482 14.336C530.908 14.2933 531.282 14.24 531.602 14.176C531.922 14.112 532.188 14.0053 532.402 13.856C532.615 13.6853 532.775 13.4613 532.882 13.184C533.01 12.9067 533.074 12.544 533.074 12.096C533.074 11.4133 532.956 10.8587 532.722 10.432C532.508 9.984 532.199 9.632 531.794 9.376C531.41 9.12 530.951 8.94933 530.418 8.864C529.906 8.75733 529.351 8.704 528.754 8.704C527.474 8.704 526.428 9.01333 525.618 9.632C524.807 10.2293 524.38 11.2 524.338 12.544H522.322ZM533.074 14.976H533.01C532.882 15.2107 532.636 15.3813 532.274 15.488C531.911 15.5947 531.591 15.6693 531.314 15.712C530.46 15.8613 529.575 16 528.658 16.128C527.762 16.2347 526.94 16.4053 526.194 16.64C525.447 16.8747 524.828 17.216 524.338 17.664C523.868 18.0907 523.634 18.7093 523.634 19.52C523.634 20.032 523.73 20.4907 523.922 20.896C524.135 21.28 524.412 21.6213 524.754 21.92C525.095 22.1973 525.49 22.4107 525.938 22.56C526.386 22.7093 526.844 22.784 527.314 22.784C528.082 22.784 528.818 22.6667 529.522 22.432C530.226 22.1973 530.834 21.856 531.346 21.408C531.879 20.96 532.295 20.416 532.594 19.776C532.914 19.136 533.074 18.4107 533.074 17.6V14.976ZM539.108 7.488H540.964V11.36H541.028C541.54 10.016 542.329 8.98133 543.396 8.256C544.484 7.53067 545.774 7.2 547.268 7.264V9.28C546.35 9.23733 545.518 9.36533 544.772 9.664C544.025 9.94133 543.374 10.3467 542.82 10.88C542.286 11.4133 541.87 12.0533 541.572 12.8C541.273 13.5253 541.124 14.3253 541.124 15.2V24H539.108V7.488ZM563.167 24H561.311V20.864H561.247C561.033 21.3973 560.713 21.888 560.287 22.336C559.881 22.784 559.412 23.168 558.879 23.488C558.345 23.7867 557.769 24.0213 557.151 24.192C556.553 24.3627 555.956 24.448 555.359 24.448C554.1 24.448 553.001 24.224 552.063 23.776C551.145 23.3067 550.377 22.6773 549.759 21.888C549.14 21.0773 548.681 20.1493 548.383 19.104C548.084 18.0373 547.935 16.9173 547.935 15.744C547.935 14.5707 548.084 13.4613 548.383 12.416C548.681 11.3493 549.14 10.4213 549.759 9.632C550.377 8.82133 551.145 8.18133 552.063 7.712C553.001 7.24267 554.1 7.008 555.359 7.008C555.977 7.008 556.575 7.08267 557.151 7.232C557.748 7.38133 558.303 7.616 558.815 7.936C559.327 8.23467 559.775 8.608 560.159 9.056C560.564 9.504 560.873 10.0267 561.087 10.624H561.151V1.152H563.167V24ZM549.951 15.744C549.951 16.5973 550.047 17.4507 550.239 18.304C550.452 19.136 550.772 19.8827 551.199 20.544C551.647 21.2053 552.212 21.7493 552.895 22.176C553.577 22.5813 554.399 22.784 555.359 22.784C556.425 22.784 557.321 22.5813 558.047 22.176C558.793 21.7493 559.391 21.2053 559.839 20.544C560.308 19.8827 560.639 19.136 560.831 18.304C561.044 17.4507 561.151 16.5973 561.151 15.744C561.151 14.8907 561.044 14.048 560.831 13.216C560.639 12.3627 560.308 11.6053 559.839 10.944C559.391 10.2827 558.793 9.74933 558.047 9.344C557.321 8.91733 556.425 8.704 555.359 8.704C554.399 8.704 553.577 8.91733 552.895 9.344C552.212 9.74933 551.647 10.2827 551.199 10.944C550.772 11.6053 550.452 12.3627 550.239 13.216C550.047 14.048 549.951 14.8907 549.951 15.744ZM567.046 1.152H569.062V4.384H567.046V1.152ZM567.046 7.488H569.062V24H567.046V7.488ZM572.728 12.544C572.792 11.584 572.995 10.752 573.336 10.048C573.677 9.344 574.136 8.768 574.712 8.32C575.309 7.872 576.003 7.54133 576.792 7.328C577.581 7.11467 578.456 7.008 579.416 7.008C580.141 7.008 580.867 7.08267 581.592 7.232C582.317 7.36 582.968 7.616 583.544 8C584.12 8.384 584.589 8.928 584.952 9.632C585.315 10.3147 585.496 11.2107 585.496 12.32V21.088C585.496 21.8987 585.891 22.304 586.68 22.304C586.915 22.304 587.128 22.2613 587.32 22.176V23.872C587.085 23.9147 586.872 23.9467 586.68 23.968C586.509 23.9893 586.285 24 586.008 24C585.496 24 585.08 23.936 584.76 23.808C584.461 23.6587 584.227 23.456 584.056 23.2C583.885 22.944 583.768 22.6453 583.704 22.304C583.661 21.9413 583.64 21.5467 583.64 21.12H583.576C583.213 21.6533 582.84 22.1333 582.456 22.56C582.093 22.9653 581.677 23.3067 581.208 23.584C580.76 23.8613 580.237 24.0747 579.64 24.224C579.064 24.3733 578.371 24.448 577.56 24.448C576.792 24.448 576.067 24.352 575.384 24.16C574.723 23.9893 574.136 23.712 573.624 23.328C573.133 22.9227 572.739 22.4213 572.44 21.824C572.163 21.2053 572.024 20.48 572.024 19.648C572.024 18.496 572.28 17.6 572.792 16.96C573.304 16.2987 573.976 15.7973 574.808 15.456C575.661 15.1147 576.611 14.88 577.656 14.752C578.723 14.6027 579.8 14.464 580.888 14.336C581.315 14.2933 581.688 14.24 582.008 14.176C582.328 14.112 582.595 14.0053 582.808 13.856C583.021 13.6853 583.181 13.4613 583.288 13.184C583.416 12.9067 583.48 12.544 583.48 12.096C583.48 11.4133 583.363 10.8587 583.128 10.432C582.915 9.984 582.605 9.632 582.2 9.376C581.816 9.12 581.357 8.94933 580.824 8.864C580.312 8.75733 579.757 8.704 579.16 8.704C577.88 8.704 576.835 9.01333 576.024 9.632C575.213 10.2293 574.787 11.2 574.744 12.544H572.728ZM583.48 14.976H583.416C583.288 15.2107 583.043 15.3813 582.68 15.488C582.317 15.5947 581.997 15.6693 581.72 15.712C580.867 15.8613 579.981 16 579.064 16.128C578.168 16.2347 577.347 16.4053 576.6 16.64C575.853 16.8747 575.235 17.216 574.744 17.664C574.275 18.0907 574.04 18.7093 574.04 19.52C574.04 20.032 574.136 20.4907 574.328 20.896C574.541 21.28 574.819 21.6213 575.16 21.92C575.501 22.1973 575.896 22.4107 576.344 22.56C576.792 22.7093 577.251 22.784 577.72 22.784C578.488 22.784 579.224 22.6667 579.928 22.432C580.632 22.1973 581.24 21.856 581.752 21.408C582.285 20.96 582.701 20.416 583 19.776C583.32 19.136 583.48 18.4107 583.48 17.6V14.976ZM604.042 30.08H602.026V20.864H601.962C601.748 21.4613 601.439 21.984 601.034 22.432C600.65 22.88 600.202 23.2533 599.69 23.552C599.178 23.8507 598.623 24.0747 598.026 24.224C597.45 24.3733 596.852 24.448 596.234 24.448C594.975 24.448 593.876 24.224 592.938 23.776C592.02 23.3067 591.252 22.6773 590.634 21.888C590.015 21.0773 589.556 20.1493 589.258 19.104C588.959 18.0373 588.81 16.9173 588.81 15.744C588.81 14.5707 588.959 13.4613 589.258 12.416C589.556 11.3493 590.015 10.4213 590.634 9.632C591.252 8.82133 592.02 8.18133 592.938 7.712C593.876 7.24267 594.975 7.008 596.234 7.008C596.831 7.008 597.428 7.09333 598.026 7.264C598.644 7.43467 599.22 7.68 599.754 8C600.287 8.32 600.756 8.704 601.162 9.152C601.588 9.57867 601.908 10.0693 602.122 10.624H602.186V7.488H604.042V30.08ZM590.826 15.744C590.826 16.5973 590.922 17.4507 591.114 18.304C591.327 19.136 591.647 19.8827 592.074 20.544C592.522 21.2053 593.087 21.7493 593.77 22.176C594.452 22.5813 595.274 22.784 596.234 22.784C597.3 22.784 598.196 22.5813 598.922 22.176C599.668 21.7493 600.266 21.2053 600.714 20.544C601.183 19.8827 601.514 19.136 601.706 18.304C601.919 17.4507 602.026 16.5973 602.026 15.744C602.026 14.8907 601.919 14.048 601.706 13.216C601.514 12.3627 601.183 11.6053 600.714 10.944C600.266 10.2827 599.668 9.74933 598.922 9.344C598.196 8.91733 597.3 8.704 596.234 8.704C595.274 8.704 594.452 8.91733 593.77 9.344C593.087 9.74933 592.522 10.2827 592.074 10.944C591.647 11.6053 591.327 12.3627 591.114 13.216C590.922 14.048 590.826 14.8907 590.826 15.744ZM621.265 24H619.409V21.024H619.345C618.811 22.1333 618.033 22.9867 617.009 23.584C616.006 24.16 614.886 24.448 613.649 24.448C612.603 24.448 611.707 24.2987 610.961 24C610.235 23.7227 609.638 23.3173 609.169 22.784C608.721 22.2507 608.39 21.6 608.177 20.832C607.963 20.064 607.857 19.1893 607.857 18.208V7.488H609.873V18.24C609.915 19.7333 610.257 20.864 610.897 21.632C611.558 22.4 612.689 22.784 614.289 22.784C615.163 22.784 615.91 22.6027 616.529 22.24C617.147 21.856 617.659 21.3547 618.065 20.736C618.47 20.1173 618.769 19.4133 618.961 18.624C619.153 17.8133 619.249 16.992 619.249 16.16V7.488H621.265V24ZM636.948 14.592C636.927 13.824 636.788 13.088 636.532 12.384C636.298 11.68 635.956 11.0613 635.508 10.528C635.06 9.97333 634.516 9.536 633.876 9.216C633.236 8.87467 632.511 8.704 631.7 8.704C630.868 8.704 630.132 8.87467 629.492 9.216C628.852 9.536 628.308 9.97333 627.86 10.528C627.412 11.0613 627.05 11.6907 626.772 12.416C626.516 13.12 626.346 13.8453 626.26 14.592H636.948ZM626.26 16.288C626.26 17.0133 626.356 17.7707 626.548 18.56C626.762 19.328 627.092 20.0213 627.54 20.64C627.988 21.2587 628.554 21.7707 629.236 22.176C629.919 22.5813 630.74 22.784 631.7 22.784C633.172 22.784 634.324 22.4 635.156 21.632C635.988 20.864 636.564 19.84 636.884 18.56H638.9C638.474 20.4373 637.684 21.888 636.532 22.912C635.402 23.936 633.791 24.448 631.7 24.448C630.399 24.448 629.268 24.224 628.308 23.776C627.37 23.3067 626.602 22.6773 626.004 21.888C625.407 21.0773 624.959 20.1493 624.66 19.104C624.383 18.0373 624.244 16.9173 624.244 15.744C624.244 14.656 624.383 13.5893 624.66 12.544C624.959 11.4987 625.407 10.5707 626.004 9.76C626.602 8.928 627.37 8.26667 628.308 7.776C629.268 7.264 630.399 7.008 631.7 7.008C633.023 7.008 634.154 7.27467 635.092 7.808C636.031 8.34133 636.788 9.04533 637.364 9.92C637.962 10.7733 638.388 11.7653 638.644 12.896C638.9 14.0053 639.007 15.136 638.964 16.288H626.26ZM642.854 24V20.608H645.542V24H642.854Z" fill="black"/>
</svg>
